<svg width="1600" height="900" viewBox="0 0 1600 900" fill="none" xmlns="http://www.w3.org/2000/svg">
  <defs>
    <linearGradient id="sky" x1="0" y1="0" x2="0" y2="1">
      <stop offset="0%" stop-color="#0f355f"/>
      <stop offset="45%" stop-color="#fb9b72"/>
      <stop offset="100%" stop-color="#f5c3a7"/>
    </linearGradient>
    <linearGradient id="fog" x1="0" y1="0" x2="1" y2="0">
      <stop offset="0%" stop-color="#f7f1f0" stop-opacity="0.55"/>
      <stop offset="100%" stop-color="#e9e3e4" stop-opacity="0.05"/>
    </linearGradient>
    <linearGradient id="mountainDark" x1="0" y1="0" x2="0" y2="1">
      <stop offset="0%" stop-color="#38445d"/>
      <stop offset="100%" stop-color="#212b3f"/>
    </linearGradient>
    <linearGradient id="mountainMid" x1="0" y1="0" x2="0" y2="1">
      <stop offset="0%" stop-color="#53617d"/>
      <stop offset="100%" stop-color="#2f3c55"/>
    </linearGradient>
  </defs>

  <rect width="1600" height="900" fill="url(#sky)"/>

  <ellipse cx="340" cy="240" rx="340" ry="120" fill="#ffd5ac" fill-opacity="0.45"/>
  <ellipse cx="1240" cy="160" rx="280" ry="90" fill="#8bb1df" fill-opacity="0.18"/>

  <path d="M0 620L190 520L360 580L540 470L730 560L930 450L1140 580L1340 510L1600 620V900H0V620Z" fill="url(#mountainMid)"/>
  <path d="M0 700L220 620L420 740L670 560L880 740L1070 590L1310 760L1600 640V900H0V700Z" fill="url(#mountainDark)"/>
  <path d="M420 650L800 390L1080 650H420Z" fill="#2e3a53"/>

  <ellipse cx="800" cy="620" rx="760" ry="78" fill="url(#fog)"/>
  <ellipse cx="780" cy="710" rx="700" ry="65" fill="url(#fog)"/>
  <ellipse cx="840" cy="790" rx="620" ry="55" fill="url(#fog)"/>
</svg>
